/* XPM */
static char *_dd1d1cb8bb64c66cc767d41e8bce1d5TKAzdNNSyjQ1n1AC[] = {
/* columns rows colors chars-per-pixel */
"64 65 47 1 ",
"  c #646464",
". c #484848",
"X c gray33",
"o c gray22",
"O c gray25",
"+ c #A40000",
"@ c #980000",
"# c #700000",
"$ c gray66",
"% c #989898",
"& c #7C7C7C",
"* c #EC0000",
"= c #E00000",
"- c #D40000",
"; c #C80000",
": c #BC0000",
"> c gray19",
", c #880000",
"< c #7C0000",
"1 c #640000",
"2 c #4C0000",
"3 c #2C2C2C",
"4 c gray55",
"5 c gray44",
"6 c #B00000",
"7 c #580000",
"8 c #4C4C4C",
"9 c #400000",
"0 c #28200C",
"q c #343434",
"w c #202020",
"e c gray36",
"r c #FCA85C",
"t c #DC8854",
"y c #C87C4C",
"u c #BC7848",
"i c #A86840",
"p c #744C28",
"a c #B47044",
"s c #885830",
"d c #6C4824",
"f c #9C6038",
"g c #403018",
"h c #5C4020",
"j c #543C1C",
"k c #A80000",
"l c white",
/* pixels */
"              .X.                             .X.              .",
"oooooooooooooooooooooooooooooooooooooooooooooooooooooooooooooooo",
"oX.....X......X.o.......XXXXXX.........XXXXXXX....ooo..XX.....oO",
"++@@@@@@@@@#..X$$%%%%%%%%%%%%%%%%%%&.oX****======-----;;;;:::+.>",
"+,<<@1#@1,#23.X$4 4 4 4 45454 4 44&X3.o-+;6;66;#;<;6;,6+<;@;+<3o",
"@#7#1##7#1723.X%4  & X&&X5&&X5&X&5X83.X-++<1+,#,+<,++,+<,+7+#13o",
"@7##7###7#903.X% 4& &X& &X&X  &X5 X83..-#+1,+1+#+<+,+1+@<+<+#23o",
",#71#7#71#703.X44 &  5&X X& X5  X&Xq3o.:#+<+,1+##++#+,++<+7+,23o",
"<7##7##7#7903..44 &X&X&X&X5 X &X5 X83o.:@+1,+<,#,<+,+1+<,+<+#93o",
"<#71977971703oX55XXO XX XOX X XO XXq3o.:##7##2,2#7,2#2,12#,#,93o",
"7222000000003o. 88888888888qqqqqqqqq3o.,11111111117777777779993o",
".33333333www3oX.33333wwwww33wwww33333.Xo33333333333wwwww3333333o",
"oooo....ooooo.o.......oooX...oo......Xo.XXXXe  eXX..OoOXoX...XoO",
"---:::::::::::+.X.rrttttttyyyyyyyuuuuuuuuuuuuuuuuuui.OX**------+",
",,6@<6<@,616,+9o.Xrpaysudsussyfisssisisisydysfuyfyigo.o*;<6,6,6<",
"+,+<,,1+,1,++#93..tapisiisidipdsisisidiisdisipsipipgo.X;6<+,<+@1",
"++,@1+<,,@1+,#93o.tpisfssdsspisdissdsssihssipipiippg3O.;<+++<+<7",
",,+,<<,<+@1+1#93o.tpiisidsidpidsisssidishidipspipipg3o.;6<+<+@<#",
"+1+#,<@1+1,++#93.Xtahisisdshspdisshsidshsidsipsipipgwo.6<++7+<,7",
"61#2<#@#@#7@##93.XaipshpfpsdpshpfpfdspsshfppsjpfpspgwOX6+<#7#@#7",
"222222222222999o.Xidddddddddddddhhhhhhhhhhhhhhhhhhggw.o+19199190",
"33w333www333ww3o.o.oq333333qqooq333wwwww333wwww33333o.X.33333333",
"X.oo.XoXo..oooo..X...OoOoOoO...XoX.OoooOO..XOooO...X.XoXOoOX...O",
"$$%%%%%%%44444444444444444&.XXkk@@@@@@@@@@,,,,,,,,,,,,,,,,,,,<.O",
"$ &4 4 4 & & &% & & 4&8&%Xoo.Xk,1@<,#<,#,<,17<#1#<1#<<#<1#<2<93O",
"$& &5& X && 5 & 8&X& 8 &X&o3.e@,<<7<7#1<#7<7#<7<1<1<#<7<<1<1193>",
"48&&X 8&8&X& 5&8 &X & 8 &Xo3X @,1<1<7<1<<1<1<#7<11<<1<#<<1<2193o",
"4& &O&8X & X &  8 &8& 8&X8o3Xe@1<1<#7#<1<7#7#<1#1#1<#<7<1#<1193o",
"4X8&O  &8&8&8& 8 & 8&8   &o3.X@@1<1<#<#1<7<2112<2<2<2<<#721#193O",
"%&8XXX8XOXX 8 XX XX8X5X5XXo3oX@<1<1#211117#1#2<21<21#2<2<2<1193o",
"&588888888888888OOOOOOOOOoo3oX<77777777777777222222222222921293o",
".o33333333333333333ooo333333...33333333wwwww3ooo3www33333333333o",
"XXXX..o.ooo.X  XXX...OOooOooOX...XoX.X.OoOoO.XX..OoO...XoX...XoO",
":::::::::+.oXttttttttuuuuuuuuuuuuuuuuui.XX;*---------::::::::::<",
"6+6@;66;+9o.otidipiidisiipisdiidiipisigo.X-+<+#++1+<,<+#+,+<+#+#",
"<,+@+<+,#93.XtdissisifpisspssisdipsidigoXX-+7+#+,1+,+<,,@#@<@,##",
"<+@<+<@+#93.otdiisfipipisihijssispfisigoX -+<+#+,+,++<+#@,+@<+#1",
",<+@+@<,#9o.XtfdisishfssspsidisdsfpsisgoX -<++#+1++<<+<+,@@,<#,#",
",<+<+<@+#9o..tdishfipssisipsjdfdifpisigo.X;+<++#+,,<+<+#@,+<,+##",
"#,@##@###9o..fdiihispipidihsdisdfpfidsg3.X;+7+#++,+,+<+#@#@<++#7",
"92222222993..idddddddddhhhhhhhhhhhhhhgg3..+111111111111111777790",
"33333333333.X.3wwww33ooo3wwwww333333333o...3333oo.o33www33333333",
".Xo.oo..oooo..ooo.....XX..oooX...Xo.o.o..X.XoX.Xe X8..oX.X.XoXoO",
"k<<@@@@@,,,,,,,,,,,,,,,,,,,,,,<oXo**--------:::::::::::::::::+.>",
"@11#<7<<1<<1<1#<7<1<#<7<7<<11<9o.X*++1+1+7+#+7+,7@,#+,<+<@#,+93O",
"@12<#7<#<1<7#2<<7<2#<#7<1<1<1<93..-,+1,1<7,7@<+7+1+#,#+,<@+1,93o",
"@12<7#17<7<#1#<7<##21<2<2#7##193o.-,+11,+<7+<7@+7+##+#+<+#,1+93o",
"@11<#7<#1<<1<2#<7<2#<2<<1<<<1193o.-+1+,1+7+#@<<7,1+<,@,@<#+,+93>",
"@12#<7<7<7<7<1<77<2#1<1#7<7#1<9woX-+11+1<7+7+7@7+1,#+#<+<@,1#93O",
"@12<7#1#<1<###<<7#127<2<1<1<1<9woX;#+1,1+7<+<7@#,1+#+#+<@#+1+93>",
"<2277777772222222222222222222293.X+1111111117777722222222222993O",
".3333333333ooo3wwww333wwww33ww33.o.333333www3qoq3w3333www333333>",
"oXoX.X....X  X.XoX.X.OoooO.X..o..XoX........8XXX8....o>ww>o..X.O",
"----::::::::::::+.X.rrttttttttuuuuuuuuuuuuuuui.oX*-----::::::::@",
"+7++1@1+<;<+1+<+93..tiiiidijisididijididihipdgo.X-+1,+7+#+#+1+#7",
"<<+<+1@<1+7<1,1,93..tsipidpjsfsisdjjdsspshidigq.X-1+7+#+#,+#+,2#",
"<7<+1@1<+<7+,1@<93.Otsspidssihijijjididshssdpg3.X-1+##++,#,#1#,#",
"@7@11+1+<+7<#1+193.Otijpidijisfdijjsdidishpfdg3.X-+17+,##+#+1#+7",
"+<+1+1,+1+<7,+<,93.Otjiidispshsjjjjdssdsphspdg3..-1+,+#+,##7+#+2",
"+<<1@@1@1<7+1+1@93..tjipidsssjfjjjisdisdihihsg3o.-1+7#7+#+#71+22",
"@7+11,1<<+7+1#,<93.Xyijpidijsdidjpdidsidspsdsg3o.;117+7+#+#+1+#7",
"222222222222222993..igggggjjjjjjjjjjjjjjjjjjggw.X+99222222222229",
"333333333333333333.X.oqq33333333333333wwwww3wwwo..333333wwwww333",
"XoXooo.....XXo....XXXXX...X...X..o...OooOooO.OoOX..oX....OoO...>",
"XXXXXXXXXXXXXXXXXXXXXXXXXXXXXXXXXXXXXXXXXXXXXXXXXXXXXXXXXXXXXXXO"
};
