/* XPM */
static char *e1ea08fcaaa3468ca2c673740b4aab7bEjvbT8sSo7Gaq8zN[] = {
/* columns rows colors chars-per-pixel */
"62 64 32 1 ",
"  c gray22",
". c #006C6C",
"X c #007C7C",
"o c #007474",
"O c #007070",
"+ c #005858",
"@ c #004040",
"# c #008484",
"$ c #008C8C",
"% c #009898",
"& c #00A4A4",
"* c #20B0B0",
"= c #007878",
"- c gray55",
"; c #B4B4B4",
": c gray66",
"> c #646464",
", c #484848",
"< c gray33",
"1 c gray44",
"2 c #7C7C7C",
"3 c #9C9C00",
"4 c #CCC400",
"5 c #E4D800",
"6 c #202020",
"7 c #989898",
"8 c #404000",
"9 c #585400",
"0 c #B4AC00",
"q c black",
"w c #74C8C8",
"e c white",
/* pixels */
"                                                              ",
"..............................................................",
"XooO.+XOOOOO.+XoOOOO.+XOOOOO.+XOOOOO.+XOOOOO.+XOOOOO.+XOOOOOO.",
"XXXX.@+XXXXX.@+XXXXX.@+XXXXX.@+##$$X.@+$$$XX.@+XXXXX.@+XoOOoO.",
"XXXX..OXXXXX..OXXXXX..OXXXXX..O#$%&X..O$$XXX..OXXXXX..OoOOOoO.",
"XXXX+@@@@@@@@@@@@@@@@@@@@@@@@@@@@@@@@@@@@@@@@@@@@@@@@@@@@OooO.",
"XXXXX+++++++++++++++++++++++++++++++++++++++++++++++++++@OooO.",
"o+*X$XOOOOOOOOOOOOOOOOOOOOOOOOOOOOOOOOOOOOOOOOOOOOOOOOO+@o+%O.",
".@+X$#===========X=X=X=XX#X#####$#$#$#$####XXX=====oooO+@.@+O.",
"..OX$$==========X=X=XXXX#X###$#$#$$$#$####XXX=====ooooO+@..OO.",
"==XX$#=======X=X=X=XX#X#####$#$#$$$#$####XXX=====o=oooO+@o==O.",
"XXXX%$====X=X=X=XXXX#X###$#$#$#$$$#$####XXX=X===o=ooooO+@o==O.",
"XXXX%#===X=X=X=XX#X#X###$#$#$#$$$#$####XXX=X===o=oooooO+@o=XO.",
"XXXX%$X=X=X=XXXX#X#####$#$#$#$$$#$####XXX=X===o=ooooooO+@==XO.",
"XXXX%#=X=XXXX#X#X#####$#$#$$$$$#$####XXX=X===o=ooooooOO+@=XXO.",
"o+*X%$X=XXXX#X#X#####$#$#$$$$$#$####XXX=X===o=ooooooOoO+@o+%O.",
".@+X%#XXX#X#X#####$#$#$#$$$$$#$####XXXXX=====ooooooOoOO+@.@+O.",
"..OX%$XX#X#X#####$#$#$#$$$$$#$####X#XXX=====ooooooOoOOO+@..OO.",
"==XX%#X#X#X#####$#$#$#$$$$$#$####X#XXX=====o=ooooooOOO.+@==XO.",
"XXXX%$#X#######$#$#$#$$$$$#$####X#XXX=====o=ooooooOoO.O+@=XXO.",
"XXXX&#X#######$#$#$$$$$$$#$#$##X#XXX=====o=ooooooOoOO.o+@=XXO.",
"XXXX&$#####$#$#$#$$$$$$$#$#$##X#XXX=X===o=ooooooOoO...O+@XXXO.",
"XXXX&#####$#$#$$$$$$$$$#$#$##X#XXX=X=====ooooooOoO.O.Oo+@XXXO.",
"o+*X&$###$#$#$$$$$#$$$#$#$##X#XXX=X=====ooooooOoO.O.O.O+@o+%O.",
".@+X&###$#$#$$$$$#$$$#$#$##X#XXX=X=====ooooooooO.O...OO+@.@+O.",
"..OX&$#$#$#$$$$$#$$$#$#$##X#XXX=X=====ooooooooOoO...OoO+@..OO.",
"==XX&#$#$$$$$$$#$$$#$#$##X#XXXXX=====o=ooooooOoO...OOOO+@===O.",
"XXXX*$#$$$$$$$-;;;;;;;::X#XXXXX=====o=ooooooOoO.O.O.OoO+@X==O.",
"XX##*#$$$$$$$X>,<<>>12-:#XXXXX=====o=ooooooOoO.O...OoOO+@==oO.",
"X###*$$$345$X.6,6-<> ;27XXXXX=====o=ooooooOoOOO...OoOoO+@=o.O.",
"####*$$=895#=.6,,,<<>>17XXXX=X===o=ooooooooOoO...OOOooO+@=O.O.",
"o+*#*$=.894$O.6,,,,<<>>7XXX=X=====ooooooooOoO...O.OoOoO+@O+#O.",
".@+#*#.O894#O.6,,,,,<<>-XX=X=====ooooooooOoO.O...OoOooO+@.,+O.",
"..O$%X.&894$O.6 69005<<-X=X=====ooooooooOoO.O...OoOoooO+@..OO.",
"==$%%o.%890#O.6669qq0,<-=X=====o=ooooooOoOOO...OOOoOooO+@..oO.",
"$%%&#o.%890$O.6669qq0,,-X=====o=ooooooOoOOO...OOOoOoooO+@.OoO.",
"%%&&#o.%890#O.6668660,,-=====o=ooooooOoOoO.O...OoOooooO+@.O=O.",
"%&&*Xo.$893$O.6668899,,-====o=ooooooooOoO.O...OOOoOoooO+@.O=O.",
"&***Xo.$893#O.6666666,,2===o=ooooooooOoO.O...OOOoOooooO+@OoXO.",
"%#w*Xo.$899$O.6666666,,2==o=ooooooooOoOOO...OOOoOoooooO+@O+%O.",
"X@#*Xo.O.89#O.66666 ,,,2===ooooooooOoOOO...O.OoOoOooooO+@.@+O.",
"XX%*#o....##O.666< ,61,1==o=ooooooOoOoO.O...OOOoOoooo=O+@..OO.",
"%%*&#o...###O.666   ,,,1=o=ooooooOoOoO.O..OOOOoOooooooO+@.o=O.",
"w*&&#o.O###XO.666666666,o=ooooooooOoO.O...O.OoOoOoooo=O+@Oo=O.",
"*&&%$oo####XO..........o=ooooooooOoOOO...O.OoOoOoooo=oO+@o=XO.",
"&&%%%o####XXOOOOOOOOOO==ooooooooOoOOO.....OOOoOoooooo=O+@o=XO.",
"&%$$*o###XXXXXXX=X=====ooooooooOoOOO.O...OOOoOoOoooo=oO+@==XO.",
"o+*$*X##XXXXXXX=X=====ooooooooOoOoO.O...O.OoOoOoooooo=O+@o+%O.",
".@+$*$#XXXXXXX=X=====ooooooooOoOoOoO...O.OOOoOoooooo==O+@.@+O.",
"..O$*%XXXXXXX=X=X===o=ooooooooOoOoO.....OOOoOoOoooo=o=O+@..OO.",
"==$$*%XXXXXX=X=X===o=ooooooooOoOOO.....OOOoOoOoooooo==O+@==XO.",
"$$$#*%XXXXX=X=X===o=ooooooooOoOOO.O...O.OoOoOoooooo=o=O+@==XO.",
"$$##*%XXXX=X=X===o=ooooooooOoOoO.O...O.OOOoOoOoooooo==O+@==XO.",
"####*%XXX=X=X=X=o=ooooooooOoOoOoO.....OOOoOoOoooooo===O+@==XO.",
"####*%XX=X=X=X===ooooooooOoOoOoO.....OOOoOoOoooooo=o==O+@=XXO.",
"o+*#*%XXX=X=X===ooooooooooOoOOO.O...O.OoOoOoOoooooo===O+@o+*O.",
".@+#*%XX=X=X===ooooooooooOoOOO.O...O.OOOoOoOoooooo=o===+@.@+O.",
"..OX*%%%%%%%%%%%%%%$$$###XXX==oo===XX###$$$$$$$$$$$####.@..OO.",
"==XX***************&&&&%%%$$####$$%%&&&&&&&&&&&%%%%%%%$O.==XO.",
"XXXXXXXXXXXXX====ooooooooO........OOoooooo==XXXXXXXXXXXXXXXXO.",
"XXXXo+*XXXXXo+*=ooooo+#oO....+o...Ooo+#ooo=Xo+*XXXXXo+*XXXXXO.",
"XXXX.@+XXXXX.@+ooooo.@+O.....@+...Oo.@+oo==X.@+XXXXX.@+XXXXXO.",
"XXXX..OXXXXX..Oooooo..OO.........Ooo..Ooo=XX..OXXXXX..OXXXXXO.",
"<<<<<<<<<<<<<<<<<<<<<<<<<<<<<<<<<<<<<<<<<<<<<<<<<<<<<<<<<<<<<<"
};
