/* XPM */
static char *_b0f40901b7c4861eb63288ef203caeeadQ1wYwSuwdbjmri[] = {
/* columns rows colors chars-per-pixel */
"64 66 61 1 ",
"  c gray33",
". c #484848",
"X c gray22",
"o c #202020",
"O c #2C2C2C",
"+ c gray66",
"@ c #989898",
"# c #D0D0D0",
"$ c gray55",
"% c gainsboro",
"& c black",
"* c #C0C0C0",
"= c gray44",
"- c #ECECEC",
"; c #646464",
": c #7C7C7C",
"> c #B4B4B4",
", c gray99",
"< c #5C4020",
"1 c #885830",
"2 c #FCA85C",
"3 c #FCFCB8",
"4 c #FCF400",
"5 c #B45400",
"6 c #80502C",
"7 c #FCF420",
"8 c #CC6000",
"9 c #FC9840",
"0 c #FC7800",
"q c #403018",
"w c #FCFCD8",
"e c #9C4C00",
"r c #28200C",
"t c #FCFC9C",
"y c #E46C00",
"u c #382C14",
"i c #6C4824",
"p c #FCF85C",
"a c #483818",
"s c #FC8820",
"d c #744C28",
"f c #FCB080",
"g c #A86840",
"h c #BC7848",
"j c gray19",
"k c #FC4040",
"l c #343434",
"z c #FC7C7C",
"x c #BC0000",
"c c #A40000",
"v c #640000",
"b c #FC2020",
"n c #FCB8B8",
"m c #FC9C9C",
"M c #E00000",
"N c #FC5C5C",
"B c #FC0000",
"V c #980000",
"C c #FCD8D8",
"Z c #B00000",
"A c white",
/* pixels */
"    ........XXXXXXXXXXXXXXXXXXXXXXXXX    XXXXXX  oooooooooooooo ",
"oooooooooooooooooooooooooooooooooooooooooooooooooooooooooooooooo",
"OOOOOOOOOOOOOOOOOOOOOOOOOOOOOOOOOOOOOOOOOOOOOOOOOOOOOOOOOOOOOOOO",
"++++++++++ X    .....O@#################+$OXXXXX.     %%%%%%%%@&",
"*%%%%##*+$ X  ..=*--* @*---------------#$;O---#=.X    %-*+$+$+=O",
"%@*@++$= XX ..&$--**+$ +#-*************@;O#----#=.XX   ++$@@+@=O",
"%*@+@$ XX .$$@O@#****$ $#-*++++++++++++$;:-***#>$O@@XX ;$$++$:=O",
"%@+@: XX .+#--*O $*++$= $#>+++++++++++@;O#*+++* O@-#: X =$@:++=O",
"%+$:.XX .#--##%$O $+++$ $**+++++++++++$;:-++++ O@-#+@: X =$+++=O",
"%+$=XX .#-##+++%$O $++$= $*$$$$$$$$$$$;O#*+++ O@-#+++@: X.=$++=O",
"#+=.X .+-#*+++++#$O $$$=               O>>++ O@-#+++++@; X. ===O",
"*$=X..  :%+++++++#$O     OOOOOOOOOOOoOO  $>=O@-#+++++++:  X. OOO",
"$=X..>-@ :+*+++++$*$O XX&&&&&&&&&&&&&&&&XX O@-#+++++++: OXXO..XX",
" XX.>-#-@O :++++$:;  &&&&&&&&&&&&&&&&&&&&&&  =#+++++: OX@@=XOX..",
" ..$-###-*O ;:$$:XXXX&&&&&&&&&&&&&&&&&&&&&oXXX$#++:;XO+-##>=XOX ",
"  .>#*++#-*=O ;; XX&&&&&&&&&&&&&&&&&&&&&&&oooXX$#; O=+-#+++:XXO ",
"  =-#+++++--:OO X&&&&&&&&&&&&&&&&&&&&&&&&&&ooooX OO+--*++++>=XO.",
"  $-#++++++#,:O&&&&&&&&&&&&&&&&&&&&&&&&&&&&&&ooo&O+,%*++++++=XOX",
" .>-#++++++$: X&&&&&&&&&&&&&&&&&&&&&&&&&<1&&&&&&o $--*++++++=XOX",
" .>##++++++$ X&&&&&&23345&&&&673,26&&&&5438&&&oooX +--*+++++:XoO",
" .>$$:$$$$$: &&&&&&4390<q&&&67w4e<&6&&&q2232q&&ooo =-#*::     oO",
" XXOOO    = X&&&&&4390rrq&&&ett32t346&&qrq232q&oooX= =   OOOOOOo",
".>-->$:OOOOXX&&&&&390rrrqq&&ey,2y<<q6&&6rqq77q&&ooXoXOOO=*--#$Oo",
".>-###--%@ XX&&&&439qrrr66&&&73y5<&&&&&6rqq232u&&&&oX$#--#*>>=Oo",
".>-*+++++*:X&&&&&340rrrr8qq&&742225r&&r5rqi573u&&OX =*-**++++ Oo",
".>-*++++++=X&&&&&32errqqep<<epwwtt25r&62rii573u&oOX =*-*++++$ Oo",
".>-*+++++$;X&&&&&38errrr62p3,wwwwwp5<y2rqii573u&oOX =*-*++++$ Oo",
".>-*+++++$ X&&&&&386rrrrr62,,33333p5<&rqqii573u&oOX =*-*$$$$$ Oo",
".>#+$$$$$$ X&&&&&38irurrrr<2,4pppp45<&rqqii573u&oOX =@=       Oo",
".+:        X&&&&&38irurrrrrep4pppp2<qrrqqie573u&&&&&&&&&&&&&&&Oo",
".XXOO&&&&&&&&&&&&38ira<&&rrep4222251q&&&qee873u&oOX =*------#$Oo",
".>-------#=X&&&&&38iq<&rrrre42888851q&rqrres73u&oOX =*-*****+=Oo",
".>-******$ X&&&&&32eqdrrrrre72eee585q&rqee8273u&oOX =*-*+++++ Oo",
".>-*+++++$ X&&&&&43er1qqq&re48<11182q&&&e8s27fu&oOX :*-*++++$ Oo",
".>-*+++++$ X&&&&&&3er1<a&&&e28q<<622q&&&&s273du&oOX $*-*++++$ Oo",
".>-*+++++$ X&&&&&&32<<gr&&&178qqr644q&&&&2273q&ooOX @*-*++++$ Oo",
".>-*+++++$ X&&&&&&43er<r&&&178qrrr4pq&&&&277hq&ooOX @*-*+$$$$ Oo",
".>-+$$$$$$ X&&&&&&&48<<q&&&<t8rrrr43q&&&&773q&&oooX ;:=       Oo",
".+:        X&&&&&&&42eqq&&&<w8rrr<43&&&&&735q&&&&&&&&&&&&&&&&&Oo",
".XXOO&&&&&&&&&&&&&&i4e<<&&e333<<<3,33e&&&35q&oOOjj.=@#------#$Oo",
".>-------#=X&&&&&&&&&ee&&&3<3,,4,443<4&&&5q&&oOOjj.=@*-******=Oo",
".>-******+ X&&&&&&&&&&&&&4,,k,kkkk,k,k&&&q&&ooOOjl.=@*-*+++++ Oo",
".>-*+++++$ X&&&&&&&&&&&z,3zkkkkkkkkkkkx&&&&&ooOOll =@*-*++++$ Oo",
".>-*+++++$ X&&&&&&&&&&z,zkkcvvvvvvvkkkkx&&&&ooOjlX =@*-*++++$ Oo",
".>-*+++++$ X&&&&&&&&&z,zkcvvv&&&&&vvvkkkx&&&ooOjl. =@*-*++++$ Oo",
".>-+$$$$$$ X&&&&&&&&bnzkc,,>&&,,,,,,,>kkkv&&ooOjX. =@*-*++++$ Oo",
".+:        X&&&&&&&&mnkkv,#.&&,######.xkkxr&&oOjX. =@*-*+$$$$ Oo",
".XXOO&&&&&&&&&&&&&&b,zkMv,#.&&,#......vNkBv&&&ooooX ;:=       Oo",
".>-------#=X&&&&&&&b,kkVv,#.&&,#.&&&&&vzkkVr&&&&&&&&&&&&&&&&&&Oo",
".>-******+ X&&&&&&&NCkMv&,#.&&,#.&&&&&&zkkZr&oOjlX =@*------#$Oo",
".>-*+++++$ X&&&&&&&NCkMv&,#>,,,#@,,,,>&mkkZr&oOjlX.=@*-*****+=Oo",
".>-+$$$$$$ X&&&&&&&NnkMv&,###########.&mkkZr&oOjlX.=@*-*+++++ Oo",
".+:        X&&&&&&&BmkMv&:....@#...@#.&mkkZr&oOjlX.=@*-*+$$$$ Oo",
".XXO&&&&&&&&&&&&&&&BzkMv&&&&&&,#.&&,#.&mkkZr&oooooX ;:=       Oo",
".>-------#=X&&&&&&&czkkvv&&&&&,#.&&,#.vNkkV&&&&&&&&&&&&&&&&&&&Oo",
".>-******+ X&&&&&&&&bzkc<,,,,,,#.&&,#.BBkbv&ooOjlX.=@*------#$Oo",
".>-*+++++$ X&&&&&&&&ckkM<,######.&&,#.ckkZv&ooOjlX.=@*-*****+=Oo",
".>-*+++++$ X&&&&&&&&&ckkc:.......&&:..kkkv&&ooOjlX.=@*-*++++$ Oo",
".>-+$$$$$$ X&&&&&&&&&&kkkcvvv&&&&&vvckkkc&&&ooOjlX.=@*-*++++$ Oo",
".+:        X&&&&&&&&rq&kkkNNkkkkkkMnmkkc&qr&ooOjlX =@*-+$$$$$ Oo",
".XXO&&&&&&&&&&&&&&&rq<<&kkkzzmmnnnmkkkc&<<qrooooooX ;:=       Oo",
".#-------#=X&&&&&&&rq<<<&&kkkkkkkkkkk&<<<<qr&&&&&&&&&&&&&&&&&&Oo",
".#-+++++++ X&&&,,,,,333tt4<<<<<<<<<<<4ttwwwwww>&lX =@#------#$Oo",
".#-+$$$$$$ X&&&,444444444444444444444444444444$&lX =@#-*++$$$=Oo",
".+:         &OX$                               OooX ;:=       Oo",
".............X ;==============================;XOo.............."
};
