/* XPM */
static char *b0f9d03f41b74bbe90432f35f22f6d61lopXNdDaBt7b93v0[] = {
/* columns rows colors chars-per-pixel */
"67 66 73 1 ",
"  c #484848",
". c gray33",
"X c #989898",
"o c gray66",
"O c #B4B4B4",
"+ c #C0C0C0",
"@ c #D0D0D0",
"# c #202020",
"$ c #2C2C2C",
"% c #7C7C7C",
"& c gray55",
"* c #580000",
"= c #403018",
"- c #483818",
"; c #543C1C",
": c #302410",
"> c #4C0000",
", c #5C4020",
"< c #382C14",
"1 c #744C28",
"2 c #885830",
"3 c #A0643C",
"4 c #905C34",
"5 c #6C4824",
"6 c #80502C",
"7 c #BC7848",
"8 c #F0945C",
"9 c #FCA470",
"0 c #DC8854",
"q c #640000",
"w c #700000",
"e c #FCB890",
"r c #FCC4A4",
"t c #FCD8C4",
"y c #ECECEC",
"u c #FCE8DC",
"i c #FCE0D0",
"p c #FCB080",
"a c #7C0000",
"s c #FCBC9C",
"d c #FCCCB0",
"f c #FCD4BC",
"g c #28200C",
"h c #D08050",
"j c #A86840",
"k c #880000",
"l c #9C6038",
"z c gray44",
"x c #400000",
"c c #646464",
"v c #C87C4C",
"b c #980000",
"n c #B47044",
"m c gray22",
"M c #A40000",
"N c gray25",
"B c #B00000",
"V c #FC9C60",
"C c #B45400",
"Z c #E88C58",
"A c #BC0000",
"S c #C80000",
"D c gray36",
"F c #D40000",
"G c #E00000",
"H c #A80000",
"J c #EC0000",
"K c #FC0000",
"L c #FC4040",
"P c #FC9C9C",
"I c #FCB8B8",
"U c black",
"Y c white",
/* pixels */
" . XoO+@@@@@@@@@@@@@@@@@@@@@+OoX . XoO+@@@@@@@@@@@@@@@@@@@@@+OoX#$#",
" . %++++++++++++OOOO+O+O+O+O+O+& . %++++++++++++OOOO+O+O+O+O+O+&#$#",
" . %++O***************==-;;;;;;-=:>*************************O+O&#$#",
" . %OO+************>*=-;,,,,,;;;;-<::>>>********************%oO&#$#",
" . %O+O**********>*;;,,12333421115;=<::>>*******************%Oo&#$#",
" . %O+O***********,56647899007777745===::*******************%Oo&#$#",
" . %OO+qqqqqq**w*14478ertttyuuiuuupp73,==::*qq*q*q*q*q*q*q**%oo&#$#",
" . %OOOqqqwqqqwa530sdfiiiiiiuuuuiitdse036;<g>*qqqqqqqqqqqqq*%oO&#$#",
" . %OOowqwqwqwqa30pdfttiiiiiuiiiiifrsee9h3;g<g*wqwqwqwqwqwqq%oo&#$#",
" . %oXOwwwwwwaaj0sdfffftiiiiiittdddfdrse9hj5g:g>*qwwwwwwwwwq%Xo&#$#",
" . %o&Xawawaakl8eddffffftiiiitfddffffdre907l5ggg>*qawawawawwzoX&#$#",
" . %&&&aaaaakkhpsdddfffffidiffdseesrdfffp90736-ggx*waaawaaawcoX&#$#",
" . %X&Xkakakkl9rsddtttttdiridsp8770esfiis9vjjl6;<g>waaaaakaaz&&&#$#",
" . cccckkkkbbhssrddtttttrtpp97415,1jljnhs07lllj5-<gqaaaakaka ccc#$#",
"  m$$$$bkbbblssrrdddde9ddts845-==55ll2152lj212365=g>qaakkkak$$$m###",
"       kbbbbhsrrrdrhn37etue7,<==,4vhn25,;--,,5465-:g>wkkkkkkm   ###",
".......bbMbl9srdd0l15548uus7;=-;6215,==--;;-;,1115<gg*abkbkbN...$$$",
"@@@@@@@bMMBhprdV0l5;;;-7uush;-;,,,6<=-<<==-;-,551,<gggakbbbb&@@@ooo",
"OOO+O+OMbMC8ssde9Z2515;7uush-=<=2Vn215;--==-;-555;<gggwkbMbM&OOO&&&",
"OOOO+O+bMBn9ssde9v32,,-7uus7-<5n9ssssV3615,;;;55,-<<gg*kMMMb%OOO&&&",
"OOO+O+OMM2hesseZ2;;65518uue761jpddsVZh777jl42265,-<<gggabMbM%OOO&&&",
"+OoOOOOMB60essZ51=,h4hpsfd9v3nh8pdstffffffp8hl65;-<ggggwMMMM&O++X&%",
"o+ooOoOB268esZ2;5n8essrddd8jnp9n7efttfddsp9V0n25;-<gggg*MMMM%+oo%X%",
"OO+OOO+M66Vep3139peeffdre725624649sssssppp98hj25--<gggggkMMM%+OO&&X",
"+OoOOOOB569ssj7epedffdrp65;<<====2srssp9V8Zhnl6,--<gggggaBMB&O++X&%",
"o+ooOoOB,69sp09edddfrpn6;===<gg<=<,ssp9VZ0v7365,--<gggggqMBM%+oo%X%",
"oooooOoB,69resddttfs835<gg<<gggggg:499V80hnj25,;-=<ggggg:BMB%ooo%%%",
"XoOoOXoB,69rrrdtttd9j,=<gggggggggg::398Zhnn45,;-==<:gggg:bBB%oXXz%&",
"oXXoXooA,69rddfttfen5<<<g<gggggggg<:=nh0vnl1,;-====:gggg:kBBzXoo%zz",
"X&X&X&XB569rddftfd86;ngg<g<<<gggggg::=j7jl25,;-==<<<<ggg:kBBcoXXzcz",
"XX&X&X&A668sddftfe75-5g<==-=<<<<ggg<::,3j325,;-==<<<<<-==aBA%XXXzzc",
"cccccccA46hedrfffej;--==-=<g2<ggggg<<:<27nl6,;-==<<<=-=<<=aB ccc   ",
"$$$$$$$AS6npddffdp1<5=<<<2;gg<g<ggg<<<<570n25;-==<<<-=<::g<A$$$$###",
"       AA6jpddddd8,<=<-;=gg<<<gggg<=<<<,30v45;-==<<<<<<=<g<Am   ###",
".......SA6l9rdddr05<6-;--;-g=-<gggg<=<<,40hl5;-==<<<<<<==g:SN...$$$",
" . XoO+AS469srddr8,<j29n=gmz&Dm$mggg<<=-4v035;-==<<<<=g==::A&OoX#$#",
" . %+++SAl69sdddr9j=p884gN<<gggggggg<<=,4v035;==<<<<<-g==::S&O+&#$#",
" . %++OSSS68eddddpl;sd9,ggggggggggggg<=;2nhl5;==<<<<<;<=<::S%+O&#$#",
" . %OO+SSS68eddddp73dt8gggggggggggggg=--2jn2,-==<<<<<;g<<gwS%oO&#$#",
" . %O+OSS7Z9eddffd8hdt0ggggxxxxxxxgg=,;,4n31,-==<<<<<-==<gaS%Oo&#$#",
" . %OO+FSZ4heddffdsstt7ggxx>x>wbw>xg;5,,n076,-=<<<<<=--=<:bS%oo&#$#",
" . %OOOSFh6jpddffdprft7ggxww*>>*>xx<61529984,-<<<<<<<==<:wSS%oO&#$#",
" . %OOoFSv559rdfft9pdd7gxx*>xx z1,122520se84,-<<<<<<g<<:<MSF%oo&#$#",
" . %oXOFF755hprdfd9ppfp,g5oOn78d90n6553pds94,-<<<<<<gg<wMSFS%Xo&#$#",
" . %o&XFF721hedddtpV9rt9n7petsrs9v45=,l9ds94,-=<<<<<g<<MSFFFzoX&#$#",
" . %&&&FF7hnverddddp9dftddtttdsV835;-,2hse06;-===<<<g<ASFFFFcoX&#$#",
" . %X&XGF7hh0prddttrprtttfttdddr9v45,52hsp75-===<<<<<<FGFGFGz&&&#$#",
" . ccccFGG7889pdddtddpiittttttffr9hl12n9r9l;====<<<<<aFFFFGF ccc#$#",
" . m$$$GFGn778pdddttffiiittttiiffe8vnv9pev1-===<<<<<<kFGFGFG$$$m#$#",
"       GGGGjj70sddftftidfttiiiifrs900899h4,======<<<qHGGGGGGm   ###",
".......GGGG33179rsddfiiidfiiiiifre80000j1;<<===<<<<:aSGGGGGGN...$$$",
"@@@@@@@GGGJ41;hZedsrdtiiiddfiitrre8h7nl5;=<:<=<<<<<>kGGGGGGG&@@@ooo",
"OOO+O+OJGJGJGKnh9sdsrdtiiidfffrds907l1,-=::<==<<<<=*HJGJGJGJ&OOO&&&",
"OOOO+O+JJGJGJGKnh9rdesrdttffddsp9hj6,-<::g:<==<<<<=qHGJGJGJG%OOO&&&",
"OOO+O+OJGJGJGJGjnh9ddpsrddrep907j25;=::g::<==<<<<==qHJGJGJGJ%OOO&&&",
"OO+OOO+JJJJJJJJKjnh9ddppep8h7n41,;=::g::<<==<<<<===,HJJJJJJJ%+OO&&X",
"+OoOOOOJJKJJJKJJj7nh9pp9hj25,,;-<::gg<<====<<<<====5vLJJGJJJ&O++X&%",
"o+ooOoOJJJJJJJJJJj7n08V8h31-=<<:::<======<<<<<=====<PPJJJJJJ%+oo%X%",
"oooooOoKJKJKJKJKJjn7n7hvvn1;;-----=====<<<<<<=====giIPJKJKJJ%ooo%%%",
"XoOoOXoJKKKJKKKJKKjn7nnn733,-==--===<<<<<<<<=====4iidPKJKJKJ%oXXz%&",
"oXXoXooKJKKKJKKKJK33n77nnl4,=-=<<<<<<<<<<<===<=nsftdivJKJKJJzXoo%zz",
"X&X&X&X&%czc%zcmNmDccczczc%c%zc%zczczczc%czc%zcmNmDccczczc%zcoXXzcz",
"XX&X&X&X&X&X&&& . %X&X&XXX&X&&oXXX&X&X&X&X&X&&& . %X&X&XXX&&oXXXzzc",
"ccccccccccccccc . ccccccccccccccccccccccccccccc . cccccccccccccc   ",
"mmmmmmmmmmmmmmmmmmmmmmmmmmmmmmmmmmmmmmmmmmmmmmmmmmmmmmmmmmmmmmmmUUU",
"m..............................................................mU##"
};
