/* XPM */
static char *_7be8c372d4c41bbadf586ecf2fe1ae3NFNXg00shax7Ag7c[] = {
/* columns rows colors chars-per-pixel */
"64 65 11 1 ",
"  c #28200C",
". c #403018",
"X c #6C4824",
"o c #5C4020",
"O c #905C34",
"+ c #543C1C",
"@ c #382C14",
"# c #483818",
"$ c #744C28",
"% c gray33",
"& c white",
/* pixels */
" ...............................................................",
".XXXXXXXXXXXXXXXXXXXXXXXXXXXXXXXXXXXXXXXXXXXXXXXXXXXXXXXXXXXXXXX",
"oOOOOOOOOOOOOOOOOOOOOOOOOOOOOOOOOOOOOOOOOOOOOOOOOOOOOOOOOOOOOOOO",
" +++++++@+ @++++++++++++++@+ @++++@+ @++++++@+ @+++++++++++@+ @+",
".##X$$$$+O +Oo####$$#X#X##+O +O$#$+O +Oo###o+O +O#$##$#$#$$+O +O",
".##X$$$o+O +OX###+$$#X#X##+O +O$#$+O +O$o#o$+O +O#$##$#$#$$+O +O",
".##o$$$++O +O$+##+$$#X#X##+O +OX#$+O +O$$o$$+O +O#$##$#$#$$+O +O",
".+#+X$$++O +O$+##o$X#X#X##+O +OX#$+O +O$$$$$+O +O#$##$#$#$$+O +O",
" X##o$o#+O +O$o#+X$X#X#X##+O +OX#$+O +O$$$$$+O +O#$##$#$#X$+O +O",
" X#+#o+#+O +O$X#o$$o#X#X##+O +Oo#$+O +O$$$$$+O +O#$##$#$#X$+O +O",
" $+##+##+O +O$$oX$$o#X#X##+O +Oo#$+O +O$$$$$+O +O#$##$#$#o$+O +O",
" $+####++O +O$$X$$$+#X#X##+O +O##$+O +O$$$$$+O +O#$##$#$#o$+O +O",
" X$###+$+O +O$$X$$$+#X#X##+O +O#o$+O +OX$$$$+O +O#$##$#$+#$+O +O",
" X$+##+$+O +O$$$$$X##X#X##+O +O#o$+O +OX$$$X+O +O#$##$#$+#$+O +O",
" o$$#+$$+O +O$$$$$X##X#X##+O +O#$$+O +Oo$$$X+O +O#$##$#$+#$+O +O",
" +$$$+$o+O +OX$$$$X##X#X##+O +Oo$$+O +O#X$Xo+O +O#$##$#$+#$+O +O",
" #X$$o$++O +OX$$$$o##X#X##+O +Oo$X+O +O#oXo#+O +O#$##$#$o#$+O +O",
" #X$$$$++O +Oo$$$$o##X#X##+O +O$$X+O +O##o##+O +O#$##$#$o#X+O +O",
".#oX$$$#+O +Oo$$$$+##X#X##+O +O$$o+O +O#####+O +O#$##$#$X#X+O +O",
".#+X$$o#+O +O+X$$$+#+X#X##+O +O$Xo+O +O#####+O +O#$##$#$X#X+O +O",
".##o$$+#+O +O+X$$X##+X#X##+O +O$X#+O +O#####+O +O#$##$#$X#o+O +O",
".##+$$+#+O +O#o$$X##+X#X##+O +O$o#+O +Oo###o+O +O#$##$#$$#o+O +O",
".+#+o+##+O +O#o$$o##oX#X##+O +OX##+O +OXo#oX+O +O#$##$#X$##+O +O",
".+##+##++O +O#+XXo##oX#X##+O +Oo##+O +O$XoX$+O +O#$##$#X$+#+O +O",
"@+#####++O +O#+oo+##oo#X##+O +O###+O +O$$X$$+O +O#$##$#o$+#+O +O",
" X#####X+O +O##++###X+#X##+O +O###+O +O$$$$$+O +O#$##$#o$o#+O +O",
" X#####X+O +O#######X+#X##+O +O##++O +O$$$$$+O +O#$##$#+$o#+O +O",
" X+###+o+O +O######+$##X##+O +O##++O +O$$$$$+O +O#$##$#+$X++O +O",
" o+###+++O +O######o$##X##+O +O##o+O +OX$$$$+O +O#$##$#+$X++O +O",
" +X###X++O +O######o$##X##+O +O##X+O +OX$$$$+O +O#$##$##$$o#O +O",
" +X+##X#+O +O######X$##X##+O +O#+X+O +Oo$$$X+O +O#$##$##$$o+O +O",
" #o+#Xo#+O +O+#####X$##X##+O +O#o$+O +OoX$$X+O +O#$##$##X$X+O +O",
" #+X+X+#+O +Oo####+$X#+X##+O +O+X$+O +O#X$$o+O +O#$##$##X$X+O +O",
" #+X+X+#+O +OX+###o$X#+X##+O +Oo$$+O +O#o$X#+O +O#$##$+#o$$+O +O",
" ##oXo##+O +O$o##+o$o#oX##+O +OX$$+O +O##Xo#+O +O#$##$+#o$$+O +O",
" ##+o+##+O +O$X+#+$$+#oX##+O +O$$$+O +O##o##+O +O#$##$+#+$$+O +O",
"@###+###+O +O$$o#o$$+#oX##+O +O$$X+O +O#####+O +O#$##$+#+$$+O +O",
".#######+O +O$$$o$$$##XX##+O +O$$X+O +O#####+O +O#$##$o#+$$+O +O",
".######++O +O$$$$$$X##XX##+O +O$$o+O +O#####+O +O#$##$o##X$+O +O",
".+#####++O +OX$$$$$X##$X##+O +O$Xo+O +Oo####+O +O#$##$X##X$+O +O",
" +#####o+O +OX$$$$$o##$X##+O +O$X#+O +Oo####+O +O#$##XX##o$+O +O",
" X+###+o+O +Oo$$$$$+##$o##+O +O$o#+O +OXo##o+O +O#$##X$##o$+O +O",
" X+###+X+O +O+$$$$$###$o##+O +OXo#+O +O$o#oo+O +O#$##o$+#+X+O +O",
" Xo+#+oX+O +O#X$$$X##+$###+O +OX##+O +O$XooX+O +O#$##o$+#+X+O +O",
" XX+++Xo+O +O#o$$$o##o$###+O +Oo##+O +O$$oX$+O +O#$##+$+#+o+O +O",
" oXo+oX++O +O#+X$X+##X$###+O +O###+O +O$$X$$+O +O#$##+$o##o+O +O",
" +XXoXX++O +O##+Xo###X$###+O +O##++O +O$$$$$+O +O#$##+$o+#++O +O",
" +XXoXX#+O +O###++###$X###+O +O##++O +O$$$$$+O +O#$##+$X+#++O +O",
" #X$$$X#+O +O+######+$X###+O +O##o+O +O$$$$X+O +O#$###$X+#++O +O",
" #o$$$X#+O +O+######o$o###+O +O#+X+O +OX$$$X+O +O#$###X$o##+O +O",
" #+X$$X#+O +Oo######X$o###+O +O#o$+O +OX$$$o+O +O#$###X$o+#+O +O",
" #+X$$o#+O +OX+#####X$####+O +O+X$+O +Oo$$$o+O +O#$###o$X+#+O +O",
" ##o$Xo#+O +O$+####+$X####+O +OX$$+O +Oo$$X++O +O#$###o$Xo#+O +O",
"@##+XX+#+O +O$o####o$X##o#+O +O$$$+O +O+X$X++O +O#$+##+X$o++O +O",
"@##+Xo+#+O +OXX+###X$o##o#+O +O$$$+O +O+X$o#+O +O#$+##+o$X++O +O",
".###oo##+O +OX$+##+X$###X#+O +O$$$+O +O#oX+#+O +O#$+###o$X++O +O",
".###++##+O +Oo$X+#+$$###X#+O +O$$$+O +O#+o##+O +O#$+###+X$++O +O",
"#+#####++O +O#X$X+$$X###X#+O +O$$$+O +O##+##+O +O#Xo###+o$X+O +O",
"#+#####++O +O#o$$$$$o###$#+O +O$$X+O +O#####+O +O#XX####o$X+O +O",
"#o#####X+O +O##$$$$X###o$#+O +O$$X+O +O#####+O +O#oX+###+XX+O +O",
"#o+###+X+O +O##oX$Xo###X$#+O +O$Xo+O +O#####+O +O#o$+####oo+O +O",
"#X+###+X+O +O###oXo####X$#+O +O$Xo+O +O#####+O +O##$+#####++O +O",
"#Xo###+X+O +O####o####X$$o+O +OXo#+O +O#####+O +Oo#$o######+O +O",
"@ooooooo+O +Oo#######ooooo+O +Oo##+O +Oo###o+O +Oo#oo######+O +O",
"%%%%%%%%%%%%%%%%%%%%%%%%%%%%%%%%%%%%%%%%%%%%%%%%%%%%%%%%%%%%%%%%"
};
